<svg xmlns="http://www.w3.org/2000/svg" xmlns:xlink="http://www.w3.org/1999/xlink" width="33" height="32" viewBox="0 0 33 32">
    <defs>
        <path id="5q4z472hda" d="M2.336 19.83l.18.603c.516-.134 1.078-.246 1.684-.336.831-.111 1.73-.156 2.673-.178h.022c4.941-.045 10.423 2.077 13.253 2.725-.232-2.175-1.023-6.526-2.348-11.243C16.498 6.73 15.462 2.308 14.857 0 12.004 2.727 4.964 10.015 0 11.401l2.336 8.428z"/>
    </defs>
    <g fill="none" fill-rule="evenodd">
        <g>
            <g>
                <g>
                    <g>
                        <path fill="#793C7E" fill-rule="nonzero" d="M3.5 22.047l5.375 6.797 3.685-.856-3.664-3.715.305-2.517h-.02c-.855 0-1.67.052-2.423.137-.55.052-1.059.137-1.527.257l-.163-.462-1.568.36z" transform="translate(-136 -80) translate(136 80) translate(.188 .704) translate(.115 .1)"/>
                        <g transform="translate(-136 -80) translate(136 80) translate(.188 .704) translate(.115 .1) translate(3.316 1.083)">
                            <mask id="yd22q2ho6b" fill="#fff">
                                <use xlink:href="#5q4z472hda"/>
                            </mask>
                            <use fill="#ED6D6D" fill-rule="nonzero" xlink:href="#5q4z472hda"/>
                            <path fill="#793C7E" d="M2.638 20.51c4.404-.651 7.69-.864 9.859-.637 3.253.34 5.896.601 8.115 1.581 1.48.654 1.767 1.619.863 2.895L8.66 20.604l-6.022-.093z" mask="url(#yd22q2ho6b)"/>
                            <path fill="#FFE192" d="M3.472 11.407L2.03 11.986 2.136 10.439 1.139 9.249 2.647 8.871 3.474 7.557 4.299 8.87 5.807 9.247 4.809 10.438 4.914 11.985z" mask="url(#yd22q2ho6b)" transform="rotate(9 3.473 9.771)"/>
                            <path fill="#FFE192" d="M11.865 17.12L8.872 18.319 9.088 15.105 7.016 12.63 10.145 11.848 11.857 9.12 13.575 11.851 16.705 12.639 14.638 15.11 14.86 18.325z" mask="url(#yd22q2ho6b)" transform="rotate(-26 11.86 13.722)"/>
                        </g>
                        <path fill="#FFF9E0" d="M27.53 20.397L28.684 5.39c.146-1.196.076-1.877-.208-2.046C25.052 1.32 22.596.661 22.12.66c-1.39-.001-.183 2.131.086 4.64.21 1.964-.622 3.944-.618 6.737.002 2.175-.153 5.202-.204 7.444-.025 1.086-1.192 1.78-.078 2.5.714.462 2.788-.066 6.223-1.584z" transform="translate(-136 -80) translate(136 80) translate(.188 .704) translate(.115 .1) rotate(-15 24.792 11.402)"/>
                        <path fill="#793C7E" d="M2.578 14.411L3.5 14.742 5.004 20.274 2.276 20.956 1.607 20.819z" transform="translate(-136 -80) translate(136 80) translate(.188 .704) translate(.115 .1)"/>
                        <path fill="#ED6D6D" fill-rule="nonzero" d="M0.753 14.604L3.392 14.608 3.398 20.579 0.759 20.575z" transform="translate(-136 -80) translate(136 80) translate(.188 .704) translate(.115 .1) rotate(164.443 2.076 17.591)"/>
                    </g>
                    <path fill="#793C7E" d="M26.355 1.841L29.125 13.167 28.149 13.235 25.188 3.055 20.29 3.229 25.844 21.42 29.587 19.771 28.149 13.235 29.125 13.167 30.932 20.349 24.354 23.846 17.496 1.626z" transform="translate(-136 -80) translate(136 80) translate(.188 .704) rotate(4 24.214 12.736)"/>
                </g>
                <path fill="#D8D8D8" fill-opacity="0" d="M0 0H32V32H0z" transform="translate(-136 -80) translate(136 80)"/>
            </g>
        </g>
    </g>
</svg>
