<svg xmlns="http://www.w3.org/2000/svg" width="24" height="24" viewBox="0 0 24 24">
    <g fill="none" fill-rule="evenodd">
        <g fill-rule="nonzero">
            <g>
                <path fill="#000" fill-opacity="0" d="M0 0H24V24H0z" transform="translate(-281 -29) translate(281 29)"/>
                <path fill="#FFF" d="M23.485 22.103L17.21 15.81c1.438-1.732 2.224-3.913 2.22-6.165C19.43 4.32 15.124 0 9.81 0 4.498 0 .19 4.319.19 9.646c0 5.328 4.308 9.647 9.62 9.647 2.12.003 4.182-.699 5.86-1.995l6.303 6.321c.2.201.472.314.756.314.284 0 .556-.113.756-.314.417-.42.417-1.097 0-1.516zm-10.347-4.556c-1.053.446-2.184.675-3.328.673-1.704.003-3.37-.507-4.78-1.464-.91-.618-1.694-1.404-2.31-2.317-.954-1.415-1.463-3.085-1.46-4.792 0-.583.06-1.164.175-1.73.223-1.095.66-2.136 1.285-3.063.616-.913 1.4-1.7 2.31-2.317C6.44 1.58 8.107 1.07 9.81 1.073c.581 0 1.161.059 1.724.175 1.094.224 2.132.662 3.056 1.289.91.618 1.695 1.404 2.31 2.317.955 1.416 1.463 3.085 1.46 4.792.003 1.708-.505 3.377-1.46 4.793-.615.913-1.4 1.7-2.31 2.317-.457.31-.946.575-1.452.79z" transform="translate(-281 -29) translate(281 29)"/>
            </g>
        </g>
    </g>
</svg>
