<svg xmlns="http://www.w3.org/2000/svg" width="20" height="20" viewBox="0 0 20 20">
    <g fill="none" fill-rule="evenodd">
        <g fill-rule="nonzero">
            <g>
                <path fill="#FFF" d="M10 0C4.478 0 0 4.478 0 10c0 5.523 4.478 10 10 10 5.523 0 10-4.477 10-10 0-5.522-4.477-10-10-10zm0 18.5c-4.693 0-8.5-3.807-8.5-8.5S5.307 1.5 10 1.5s8.5 3.807 8.5 8.5-3.807 8.5-8.5 8.5zm1.838-11.027L10 3.75 8.164 7.473l-4.108.597 2.973 2.896-.703 4.089L10 13.125l3.672 1.931-.7-4.088 2.97-2.897-4.104-.598z" transform="translate(-121 -31) translate(121 31)"/>
                <path fill="#000" fill-opacity="0" d="M0 0H20V20H0z" transform="translate(-121 -31) translate(121 31)"/>
            </g>
        </g>
    </g>
</svg>
