<svg xmlns="http://www.w3.org/2000/svg" width="20" height="20" viewBox="0 0 20 20">
    <g fill="none" fill-rule="evenodd">
        <g fill-rule="nonzero">
            <g>
                <path fill="#FFF" d="M17.406 12.918l-1.723-1.18V8.954l1.723-1.168v5.133zm-14.934 2.06V5.022H14.26v3.52c0 .012-.004.023-.004.035v5.689c0 .008.005.015.005.024v.687H2.472zM18.45 5.816c-.232-.124-.514-.11-.732.039l-2.035 1.378V5.023c0-.785-.636-1.422-1.421-1.423H2.472c-.786.001-1.422.638-1.422 1.423v9.954c0 .785.638 1.423 1.421 1.423h11.79c.786-.001 1.422-.638 1.422-1.423v-.946l.009-.563 2.023 1.385c.218.15.5.166.733.043.234-.123.38-.366.38-.63V6.445c0-.263-.146-.504-.378-.627zm-13.489.627c-.381 0-.733.204-.924.534-.19.33-.19.737 0 1.067.191.33.544.534.925.533.59 0 1.067-.478 1.066-1.067 0-.59-.478-1.067-1.067-1.067" transform="translate(-174 -31) translate(174 31)"/>
                <path fill="#000" fill-opacity="0" d="M0 0H20V20H0z" transform="translate(-174 -31) translate(174 31)"/>
            </g>
        </g>
    </g>
</svg>
