<svg xmlns="http://www.w3.org/2000/svg" width="16" height="16" viewBox="0 0 16 16">
    <g fill="none" fill-rule="evenodd">
        <g fill-rule="nonzero">
            <g>
                <path fill="#000" fill-opacity="0" d="M0 0H16V16H0z" transform="translate(-14 -80) translate(14 80)"/>
                <path fill="#9A9494" d="M8 16c-4.418 0-8-3.582-8-8s3.582-8 8-8 8 3.582 8 8-3.582 8-8 8zm0-1.143c3.787 0 6.857-3.07 6.857-6.857 0-3.787-3.07-6.857-6.857-6.857-3.787 0-6.857 3.07-6.857 6.857 0 3.787 3.07 6.857 6.857 6.857zm3.794-4.439c.238.204.268.56.068.8s-.557.275-.8.078L7.635 8.439c-.13-.108-.205-.27-.205-.439V5.143c0-.316.255-.571.571-.571.316 0 .571.255.571.571v2.59l3.224 2.685z" transform="translate(-14 -80) translate(14 80)"/>
            </g>
        </g>
    </g>
</svg>
