<svg xmlns="http://www.w3.org/2000/svg" width="20" height="20" viewBox="0 0 20 20">
    <g fill="none" fill-rule="evenodd">
        <g fill-rule="nonzero">
            <g>
                <path fill="#FFF" d="M18.618 10.185l-8.214-8.776c-.098-.098-.227-.143-.36-.151h-.1c-.134.008-.263.052-.362.15l-8.15 8.777c-.228.227-.214.609.03.853.004.004.009.005.012.008.11.117.26.19.428.19H3.75v6.89c0 .184.083.345.21.459.109.13.264.214.442.214h3.743c.171 0 .324-.077.433-.198.14-.115.235-.281.235-.476v-.183c-.004-.017-.011-.033-.011-.051v-3.828c0-.173.14-.313.312-.313h1.823c.173 0 .313.14.313.313v3.828c0 .013-.006.025-.008.038v.196c0 .195.095.361.235.476.109.12.261.198.432.198h3.743c.179 0 .334-.085.443-.214.127-.114.21-.275.21-.459v-6.89h1.848c.17 0 .322-.076.43-.197.001 0 .003 0 .003-.002.245-.243.258-.625.032-.852zM8.152 12.487c-.33 0-.598.28-.598.625 0 .014.007.026.008.04v4.397H5v-6.926c0-.09-.02-.173-.054-.25-.09-.226-.302-.386-.551-.386H3.308l6.345-6.885c.309-.309.386-.31.68 0l6.4 6.886H15.66c-.25 0-.462.16-.551.386-.034.077-.054.161-.054.25v6.926h-2.563v-4.426-.006-.005c0-.345-.267-.625-.597-.625H8.152v-.001z" transform="translate(-29 -30) translate(29 30)"/>
                <path fill="#000" fill-opacity="0" d="M0 0H20V20H0z" transform="translate(-29 -30) translate(29 30)"/>
            </g>
        </g>
    </g>
</svg>
