<svg xmlns="http://www.w3.org/2000/svg" width="22" height="20" viewBox="0 0 22 20">
    <g fill="none" fill-rule="evenodd">
        <g fill-rule="nonzero">
            <g>
                <path fill="#FFF" stroke="#FFF" stroke-width=".4" d="M19.914 6.658l-3.181-4.415c-.086-.12-.223-.19-.37-.19H3.637c-.147 0-.284.07-.37.19L.086 6.658c-.1.138-.114.321-.036.473.018.036.041.069.068.098L9.67 17.797c.087.095.21.15.338.15.129 0 .252-.055.338-.15L19.89 7.219c.023-.027.043-.056.06-.088.078-.152.064-.335-.036-.473zm-1.259-.19h-4.584l2.292-3.18 2.292 3.18h0zm-6.085.911l-2.562 8.533L7.43 7.379h5.139zm-4.862-.91L10 3.288l2.292 3.18H7.708h0zm3.181-3.505h4.585l-2.292 3.181-2.293-3.18h0zM6.82 6.145l-2.293-3.18h4.585l-2.293 3.18h0zM6.48 7.38l2.507 8.303L1.481 7.38h5zm7.04 0h5.018l-7.512 8.309 2.494-8.309h0zM3.637 3.288l2.292 3.18H1.345l2.292-3.18z" transform="translate(-69 -31) translate(70 31)"/>
                <path fill="#000" fill-opacity="0" d="M0 0H20V20H0z" transform="translate(-69 -31) translate(70 31)"/>
            </g>
        </g>
    </g>
</svg>
