<svg xmlns="http://www.w3.org/2000/svg" width="20" height="20" viewBox="0 0 20 20">
    <g fill="none" fill-rule="evenodd">
        <g fill-rule="nonzero">
            <g>
                <path fill="#FFF" d="M14.856 4.905V1.15c0-.362.079-.995-.284-.995H6.03c-.362 0-.996.632-.996.995v3.859c-1.275 1.316-2.245 3.175-2.245 5.233 0 2.06.971 3.918 2.245 5.234v4.076c0 .363.634.268.996.268h8.543c.362 0 .283.095.283-.268V15.58c1.735-1.322 2.355-3.224 2.355-5.34 0-2.115-.62-4.014-2.355-5.338v.003zM6.31 1.43h7.295v2.522c-1.098-.615-2.335-.938-3.593-.937-1.34 0-2.318.366-3.702 1.001V1.43zm7.295 17.117H6.309v-2.076c1.383.635 2.362 1.002 3.702 1.002 1.294 0 2.538-.343 3.593-.938v2.012zM10.19 16.27c-3.267 0-5.915-2.648-5.915-5.915s2.648-5.915 5.915-5.915 5.915 2.648 5.915 5.915-2.648 5.915-5.915 5.915zm.383-5.19H9.348c-.025 0-.044-.02-.044-.044V6.522c0-.025.02-.045.043-.045h1.226c.024 0 .044.02.044.044v4.513c0 .025-.02.045-.043.045zm2.671-1.273v1.227c0 .024-.02.043-.044.043H9.347c-.024 0-.043-.02-.043-.043V9.806c0-.024.02-.045.043-.045h3.857c.025 0 .041.02.041.044z" transform="translate(-227 -31) translate(227 31)"/>
                <path fill="#000" fill-opacity="0" d="M0 0H20V20H0z" transform="translate(-227 -31) translate(227 31)"/>
            </g>
        </g>
    </g>
</svg>
