<svg xmlns="http://www.w3.org/2000/svg" xmlns:xlink="http://www.w3.org/1999/xlink" width="60" height="41" viewBox="0 0 60 41">
    <defs>
        <path id="u5520dlmaa" d="M17.236 0c.702 2.773 1.903 8.086 3.415 13.7 1.537 5.668 2.603 10.853 2.872 13.466-2.015-.478-5.244-1.606-8.762-2.394l2.47-2.827 3.736-.277-1.867-3.355.9-3.757-3.665.798-3.18-2.045-.398 3.848-2.865 2.493 3.419 1.581 1.387 3.527c-2.197-.49-4.505-.844-6.699-.823h-.026c-1.094.027-2.136.08-3.1.215-.704.107-1.355.241-1.955.403l-.208-.726L0 13.7c.567-.164 1.157-.396 1.764-.686l.612 1.057-.403 1.816 1.758-.416 1.548.957.16-1.856 1.36-1.225-1.66-.731-.524-1.27C9.509 8.03 14.747 2.465 17.235 0z"/>
    </defs>
    <g fill="none" fill-rule="evenodd">
        <g>
            <g>
                <g>
                    <g>
                        <path fill="#FFF" fill-rule="nonzero" d="M4.56 25.309l6.235 8.597 4.276-1.083-4.252-4.699.354-3.183h-.023c-.992 0-1.937.065-2.811.173-.638.065-1.228.173-1.772.325l-.189-.585-1.818.455z" transform="translate(-41 -129) translate(41 130) translate(.081 3.445) translate(.072 1.423)"/>
                        <g transform="translate(-41 -129) translate(41 130) translate(.081 3.445) translate(.072 1.423) translate(3.908)">
                            <use fill="#FFF" fill-rule="nonzero" xlink:href="#u5520dlmaa"/>
                        </g>
                        <path fill="#FFF" d="M8.678 11.226c-1.494.9-2.505 1.497-3.03 1.79-.527.292-.5.464.079.517l3.318-1.919-.367-.388z" transform="translate(-41 -129) translate(41 130) translate(.081 3.445) translate(.072 1.423)"/>
                        <path fill="#FFF" fill-rule="nonzero" d="M0.962 16.27L4.032 16.246 3.975 23.403 0.906 23.427z" transform="translate(-41 -129) translate(41 130) translate(.081 3.445) translate(.072 1.423) rotate(164.443 2.469 19.836)"/>
                    </g>
                </g>
                <path fill="#FFF" stroke="#FFF" stroke-linecap="round" stroke-width=".3" d="M37.349 0.903L35.519 4.982 37.661 4.705 36.204 8.551 39.461 3.528 37.381 3.851z" transform="translate(-41 -129) translate(41 130) rotate(21 37.49 4.727)"/>
                <path fill="#FFF" stroke="#FFF" stroke-linecap="round" stroke-width=".3" d="M41.096 27.395L39.13 31.425 41.33 31.105 39.75 34.897 43.2 29.913 41.062 30.277z" transform="translate(-41 -129) translate(41 130) rotate(114 41.165 31.146)"/>
                <path fill="#FFF" d="M30.627 5.664L30.871 9.153 29.753 9.231 29.276 7.12 23.593 7.314 30.09 29.186 34.428 27.215 34.106 25.537 35.111 25.467 35.99 27.914 28.368 32.097 20.347 5.381z" transform="translate(-41 -129) translate(41 130) rotate(4 28.169 18.739)"/>
                <path fill="#FFF" fill-rule="nonzero" d="M41.391 16.094c.027 0 .053-.003.08-.009.196-.075.294-.208.294-.398v-3.895c-.001-.131-.004-.3-.008-.508-.006 0-.008-.01-.008-.026-.069-.214-.201-.32-.397-.32h-5.65c-1.106 0-2.306.003-3.598.008-.108-.004-.442-.007-1-.008H30.301l-.071.008c-.212.075-.318.214-.318.415v1.694c0 .686.003 1.578.008 2.675l.008.044c.069.213.19.32.365.32h11.098zm-1.906-1.407h-7.113c-.073 0-.13-.054-.173-.164-.004-.717-.007-1.306-.008-1.766v-.874h2.524l4.573-.008.056.008c.094.028.141.113.141.256v2.549zM39.957 25c.357 0 .695-.132 1.015-.396.276-.225.471-.539.585-.94.021-.154.154-1.348.398-3.58 0-.012-.006-.05-.017-.116-.08-.193-.203-.289-.365-.289-1.213.005-2.284.007-3.213.008h-5.559l.26-1.097c.07-.324.111-.486.122-.486h9.698c.037 0 .065-.006.08-.017.114-.06.171-.143.171-.247v-.553c0-.033-.005-.06-.016-.083-.043-.115-.124-.173-.244-.173H29.236c-.038 0-.057.003-.057.008-.092 0-.152.061-.179.182v.693c.022.126.1.19.236.19h1.64c-.324 1.37-.5 2.133-.531 2.289l-.004.023v.006c.005.005.007.03.007.074.06.165.16.247.3.247h8.935c-.152 1.386-.233 2.098-.244 2.137-.06.66-.097.99-.113.99-.06.093-.125.14-.195.14h-3.753c-.157.044-.235.13-.235.256v.503c0 .132.06.209.178.231h4.736zm6.264 0c.3 0 .8-.16 1.502-.482.402-.194.812-.448 1.23-.764.224-.155.538-.446.94-.872.438-.498.73-.878.875-1.138.337-.52.637-1.088.9-1.702.32-.72.624-1.692.907-2.916.172-.77.319-1.702.442-2.799.097-1.168.145-1.907.145-2.217l-.016-.092c-.08-.194-.204-.29-.37-.29H49.17c.214-.78.336-1.236.364-1.367l.005-.03v-.007c-.005 0-.007-.017-.007-.05-.043-.183-.14-.274-.29-.274h-1.518c-.155 0-.302.108-.442.324l-.007.024c-.067.221-.41 1.484-1.029 3.788-.235.864-.361 1.343-.377 1.437v.017c0 .022.002.047.008.074.059.155.16.233.305.233h1.494c.182 0 .335-.105.458-.316l.747-2.782h1.896c0 .194-.03.659-.088 1.395-.086.87-.177 1.576-.274 2.118-.208 1.091-.412 1.922-.61 2.492h-.008l-.354-2.193c-.09-.265-.26-.398-.506-.398H47.54c-.038 0-.083.005-.137.016-.16.078-.241.191-.241.34.021.14.198 1.222.53 3.248.038.25.075.396.113.44.117.156.243.233.377.233h.964c-.102.222-.26.526-.474.914-.225.387-.543.847-.956 1.378-.182.233-.474.546-.875.939-.6.52-.9.889-.9 1.105v.024c0 .09.08.139.24.15h.041zm9.228 0c.09 0 .157-.014.2-.042.165-.088.248-.21.248-.366-.005-.926-.008-1.625-.008-2.096V10.449c0-.027-.003-.07-.008-.125-.08-.216-.21-.324-.392-.324h-1.471c-.054 0-.104.011-.152.033-.166.1-.248.22-.248.358v13.81c0 .25.005.408.016.475.069.216.213.324.432.324h1.383zm4.208-1.406c.017 0 .036-.003.059-.009.19-.061.284-.181.284-.36l-.159-1.366c-.636-5.477-.965-8.282-.987-8.416-.084-.794-.137-1.222-.159-1.283-.123-.19-.26-.285-.41-.285h-1.572c-.023 0-.048.003-.076.008-.19.073-.284.188-.284.344 0 .067.017.238.05.511.636 5.477.982 8.414 1.037 8.81.117 1.09.184 1.666.201 1.727.112.213.254.319.427.319h1.589z" transform="translate(-41 -129) translate(41 130)"/>
                <path fill="#FFF" fill-opacity="0" d="M0 0H60V40H0z" transform="translate(-41 -129) translate(41 130)"/>
            </g>
        </g>
    </g>
</svg>
