<svg xmlns="http://www.w3.org/2000/svg" xmlns:xlink="http://www.w3.org/1999/xlink" width="98" height="82" viewBox="0 0 98 82">
    <defs>
        <path id="jco93pdvfa" d="M4.256 37.304l.328 1.136c.941-.253 1.964-.463 3.07-.631 1.514-.21 3.15-.294 4.87-.336h.04c9.005-.085 19.227 3.84 24.384 5.059-.423-4.092-2.097-12.209-4.511-21.083C30.063 12.66 28.175 4.342 27.073 0 21.875 5.13 9.045 18.842 0 21.45l4.256 15.854z"/>
    </defs>
    <g fill="none" fill-rule="evenodd">
        <g>
            <g>
                <path fill="#FFF" fill-rule="nonzero" d="M2.42 75.157c.773 0 1.403-.171 1.89-.513.486-.342.73-.81.73-1.403 0-.426-.128-.784-.382-1.073-.254-.289-.742-.568-1.465-.838-.57-.226-.938-.412-1.104-.556-.166-.145-.25-.346-.25-.604 0-.261.116-.472.347-.633.23-.16.529-.24.896-.24.613 0 1.162.156 1.647.469v-1.107c-.473-.192-.985-.288-1.536-.288-.71 0-1.31.173-1.796.519-.486.346-.729.806-.729 1.38 0 .402.107.745.322 1.028.215.283.682.57 1.4.859.598.222.995.415 1.19.577.195.162.293.368.293.618 0 .586-.447.879-1.342.879-.668 0-1.29-.21-1.869-.627v1.172c.5.254 1.086.38 1.758.38zm4.605-.153l1.26-2.062c.192-.313.29-.48.293-.504h.024c.12.226.214.394.28.504l1.237 2.062h1.336l-2.139-3.217 2.168-3.263h-1.26l-1.576 2.683h-.023c-.105-.21-.195-.382-.27-.515l-1.212-2.168H5.807l2.103 3.299-2.203 3.181h1.318zm7.787.153c.997 0 1.731-.41 2.204-1.23h.023v1.077h1.148v-9.592H17.04v3.99h-.023c-.399-.687-1.04-1.03-1.922-1.03-.883 0-1.598.323-2.145.97-.547.646-.82 1.504-.82 2.574 0 .993.242 1.78.726 2.365.485.584 1.137.876 1.957.876zm.346-.95c-.562 0-1.012-.21-1.35-.63-.338-.42-.507-.99-.507-1.713 0-.786.176-1.406.527-1.86.352-.456.832-.683 1.442-.683.5 0 .92.174 1.262.524.342.35.513.784.513 1.304v.902c0 .613-.176 1.126-.527 1.538-.352.412-.805.618-1.36.618zm5.66-7.26c.207 0 .382-.067.525-.202.142-.134.214-.303.214-.506 0-.207-.072-.38-.214-.516-.143-.137-.318-.205-.525-.205-.203 0-.374.07-.512.208-.139.139-.208.31-.208.513s.068.372.205.506c.136.135.308.203.515.203zm.563 8.057v-6.48h-1.149v6.48h1.149zm3.2 0v-3.697c0-.574.161-1.049.485-1.424.325-.375.739-.562 1.243-.562.972 0 1.459.666 1.459 1.998v3.685h1.142v-3.96c0-.872-.185-1.535-.556-1.99-.372-.455-.913-.683-1.624-.683-.93 0-1.638.409-2.126 1.225h-.024v-1.072h-1.148v6.48h1.148zm8.378 3.053c2.328 0 3.492-1.2 3.492-3.598v-5.935h-1.148v.879h-.024c-.418-.688-1.058-1.032-1.922-1.032-.898 0-1.617.324-2.156.97-.539.647-.808 1.523-.808 2.628 0 .961.244 1.733.732 2.315.488.582 1.139.873 1.951.873.977 0 1.711-.409 2.203-1.225h.024v.686c0 1.656-.787 2.484-2.362 2.484-.664 0-1.357-.201-2.08-.604v1.108c.594.3 1.293.451 2.098.451zm.445-3.85c-.554 0-1-.212-1.336-.638-.336-.426-.504-.983-.504-1.67 0-.801.174-1.43.522-1.89.348-.459.834-.688 1.459-.688.496 0 .914.18 1.254.539.34.36.508.789.504 1.289v.902c.004.625-.172 1.14-.528 1.547-.355.406-.812.61-1.37.61zm7.325.797l1.394-4.558c.078-.243.123-.446.135-.61h.023c.016.219.051.426.106.621l1.289 4.547h1.195l1.934-6.48H45.69l-1.265 4.81c-.063.227-.098.426-.106.598h-.052c-.024-.258-.055-.457-.094-.598l-1.36-4.81h-1.06l-1.395 4.787c-.058.191-.095.394-.111.61h-.047c-.02-.25-.049-.448-.088-.593l-1.295-4.804h-1.195l1.945 6.48h1.16zm8.824.153c.875 0 1.537-.385 1.986-1.155h.03v1.002h1.136v-4.172c0-1.64-.781-2.46-2.344-2.46-.843 0-1.588.2-2.232.603v1.107c.64-.523 1.35-.785 2.127-.785.875 0 1.312.53 1.312 1.588l-1.922.27c-1.433.199-2.15.904-2.15 2.115 0 .578.186 1.037.557 1.377.37.34.87.51 1.5.51zm.293-.932c-.36 0-.649-.098-.867-.293-.22-.195-.329-.447-.329-.756 0-.351.101-.625.302-.82.201-.195.568-.328 1.099-.399l1.517-.205v.621c0 .532-.162.973-.486 1.325-.324.351-.736.527-1.236.527zm5.912.78v-3.698c0-.574.162-1.049.486-1.424.324-.375.738-.562 1.242-.562.973 0 1.46.666 1.46 1.998v3.685h1.142v-3.96c0-.872-.186-1.535-.557-1.99-.37-.455-.912-.683-1.623-.683-.93 0-1.638.409-2.127 1.225h-.023v-1.072h-1.149v6.48h1.149zm8.379 3.052c2.328 0 3.492-1.2 3.492-3.598v-5.935H66.48v.879h-.023c-.418-.688-1.059-1.032-1.922-1.032-.898 0-1.617.324-2.156.97-.54.647-.809 1.523-.809 2.628 0 .961.244 1.733.733 2.315.488.582 1.138.873 1.95.873.977 0 1.712-.409 2.204-1.225h.023v.686c0 1.656-.787 2.484-2.36 2.484-.665 0-1.358-.201-2.08-.604v1.108c.593.3 1.292.451 2.097.451zm.445-3.85c-.555 0-1-.212-1.336-.638-.336-.426-.504-.983-.504-1.67 0-.801.174-1.43.522-1.89.347-.459.834-.688 1.459-.688.496 0 .914.18 1.254.539.34.36.507.789.503 1.289v.902c.004.625-.171 1.14-.527 1.547-.355.406-.812.61-1.371.61zm5.52.938c.222 0 .406-.073.55-.22.145-.146.217-.321.217-.524 0-.207-.072-.384-.217-.53-.144-.147-.326-.22-.545-.22-.214 0-.394.072-.539.217-.144.144-.216.322-.216.533 0 .203.07.378.213.524.143.147.322.22.537.22zm5.15.012c.7 0 1.297-.149 1.793-.446v-1.054c-.496.367-1.024.55-1.582.55-.66 0-1.185-.21-1.573-.632-.389-.422-.583-1.006-.583-1.752 0-.758.206-1.365.618-1.82.412-.455.946-.682 1.602-.682.559 0 1.067.168 1.524.504v-1.137c-.422-.211-.93-.317-1.524-.317-1.03 0-1.854.326-2.47.976-.615.65-.922 1.507-.922 2.57 0 .956.285 1.736.855 2.337.57.602 1.324.903 2.262.903zm6.088 0c.992 0 1.783-.315 2.373-.944.59-.629.885-1.455.885-2.478 0-1.051-.277-1.874-.83-2.47-.552-.596-1.315-.894-2.288-.894-1.023 0-1.834.31-2.431.93-.598.618-.897 1.463-.897 2.533 0 .996.29 1.8.868 2.409.578.609 1.351.914 2.32.914zm.07-.95c-.637 0-1.143-.214-1.52-.644-.377-.43-.566-1.018-.566-1.764 0-.77.187-1.375.56-1.816.373-.442.882-.662 1.526-.662.656 0 1.156.21 1.5.632.344.422.516 1.028.516 1.817 0 .785-.172 1.388-.516 1.808-.344.42-.844.63-1.5.63zm5.953.797V71.32c0-.582.144-1.06.43-1.436.288-.375.65-.562 1.088-.562.95 0 1.424.615 1.424 1.845v3.838h1.148v-3.691c0-.54.15-1.006.451-1.4.301-.395.662-.592 1.084-.592.5 0 .86.151 1.078.454.22.303.329.805.329 1.509v3.72h1.148v-3.996c0-1.758-.713-2.637-2.139-2.637-.957 0-1.675.442-2.156 1.325-.129-.407-.36-.729-.691-.967-.332-.238-.715-.358-1.149-.358-.887 0-1.56.393-2.021 1.178h-.024v-1.025h-1.148v6.48h1.148z" opacity=".7" transform="translate(-33 -187) translate(33 189)"/>
                <path fill="#FFF" stroke="#FFF" stroke-linecap="round" stroke-width=".625" d="M60.427 0.712L57.547 7.105 60.911 6.667 58.617 12.693 63.74 4.82 60.473 5.33z" transform="translate(-33 -187) translate(33 189) rotate(21 60.643 6.702)"/>
                <path fill="#FFF" stroke="#FFF" stroke-linecap="round" stroke-width=".625" d="M66.303 42.176L63.231 48.498 66.676 48 64.209 53.95 69.603 46.133 66.255 46.699z" transform="translate(-33 -187) translate(33 189) rotate(114 66.417 48.063)"/>
                <path fill="#FFF" d="M49.867 8.168L50.249 13.629 48.494 13.752 47.744 10.447 38.819 10.753 49.015 44.994 55.83 41.907 55.324 39.28 56.903 39.169 58.284 43.001 46.311 49.552 33.72 7.727z" transform="translate(-33 -187) translate(33 189) rotate(4 46.002 28.64)"/>
                <path fill="#FFF" fill-rule="nonzero" d="M66.77 24.497c.042 0 .084-.004.126-.013.307-.118.461-.325.461-.623v-6.099c0-.205-.005-.47-.012-.796-.008 0-.013-.013-.013-.04-.108-.334-.316-.502-.624-.502h-8.872c-1.74.001-3.623.006-5.652.014-.171-.006-.695-.01-1.571-.012h-.324l-.173-.001h-.765l-.112.013c-.333.117-.5.334-.5.65l.001 2.651c.001 1.075.005 2.471.012 4.19l.013.067c.108.334.299.501.574.501H66.77zm-2.993-2.202H52.604c-.115 0-.206-.086-.272-.258-.007-1.122-.01-2.043-.012-2.764v-1.368h3.2l.763-.001c2.076-.002 4.47-.006 7.185-.012l.086.013c.149.043.223.177.223.4v3.99zm.74 16.146c.562 0 1.093-.207 1.595-.62.434-.353.74-.844.919-1.472.034-.242.242-2.11.625-5.606 0-.017-.009-.077-.026-.18-.127-.302-.319-.452-.574-.452-1.905.007-3.587.01-5.046.012h-8.732l.408-1.717c.11-.508.175-.762.192-.762H69.11c.06 0 .102-.009.128-.026.178-.095.268-.224.268-.387v-.866c0-.051-.009-.094-.026-.129-.068-.18-.196-.271-.383-.271h-21.42c-.06 0-.089.004-.089.013-.144 0-.238.095-.28.284v1.085c.033.198.157.297.37.297h2.576c-.508 2.146-.786 3.34-.834 3.584l-.007.037v.008c.008.009.012.047.012.116.094.259.251.388.472.388H63.93c-.238 2.17-.365 3.284-.382 3.345-.094 1.033-.153 1.55-.179 1.55-.093.146-.195.219-.306.219h-5.894c-.247.069-.37.202-.37.4v.788c0 .207.094.327.28.362h7.438zm9.84 0c.471 0 1.258-.252 2.36-.754.63-.304 1.274-.703 1.93-1.197.354-.242.846-.698 1.477-1.365.69-.78 1.148-1.374 1.375-1.782.53-.814 1-1.703 1.413-2.665.505-1.127.98-2.649 1.426-4.564.27-1.205.5-2.666.694-4.383.151-1.829.227-2.986.227-3.471l-.025-.143c-.126-.304-.32-.456-.58-.456h-5.666c.336-1.22.527-1.934.57-2.14l.01-.045v-.012c-.008 0-.012-.026-.012-.078-.068-.286-.219-.43-.455-.43h-2.384c-.244 0-.476.17-.694.508l-.012.038c-.106.346-.644 2.323-1.616 5.93-.37 1.353-.568 2.103-.593 2.25v.026c0 .035.004.074.013.117.092.243.252.364.479.364h2.347c.286 0 .526-.165.72-.494l1.173-4.356h2.977c0 .303-.046 1.031-.138 2.184-.135 1.361-.278 2.467-.43 3.316-.327 1.708-.647 3.008-.958 3.901h-.013l-.555-3.433c-.143-.416-.408-.624-.795-.624h-2.196c-.058 0-.13.009-.214.026-.252.122-.379.3-.379.533.034.217.312 1.912.833 5.085.06.39.118.62.177.689.185.243.383.364.593.364h1.514c-.16.347-.408.824-.744 1.43-.354.607-.854 1.327-1.502 2.159-.286.364-.744.854-1.375 1.47-.942.814-1.414 1.39-1.414 1.729v.039c0 .138.127.216.379.234h.063zm14.495 0c.142 0 .247-.022.314-.065.26-.14.39-.33.39-.573-.009-1.45-.013-2.545-.013-3.283V15.66c0-.043-.004-.108-.013-.195-.125-.339-.33-.508-.615-.508h-2.312c-.084 0-.163.017-.238.052-.26.156-.39.343-.39.56V37.19c0 .391.008.639.025.743.11.338.335.508.679.508h2.173zm6.61-2.202c.026 0 .056-.004.091-.013.298-.096.447-.284.447-.564l-.25-2.14c-.998-8.574-1.515-12.966-1.55-13.176-.131-1.242-.215-1.911-.25-2.008-.192-.297-.407-.446-.643-.446h-2.47c-.036 0-.075.005-.119.013-.298.114-.447.293-.447.538 0 .105.027.372.08.801.998 8.574 1.54 13.172 1.629 13.793.183 1.706.289 2.607.315 2.703.175.333.398.5.67.5h2.496z" transform="translate(-33 -187) translate(33 189)"/>
                <g>
                    <path fill="#FFF" fill-rule="nonzero" d="M7.152 39.624l9.794 13.459 6.716-1.695-6.679-7.357.557-4.983h-.037c-1.558 0-3.042.101-4.415.27-1.002.102-1.93.272-2.783.51l-.297-.916-2.856.712z" transform="translate(-33 -187) translate(33 189) translate(2.008 6.921)"/>
                    <g transform="translate(-33 -187) translate(33 189) translate(2.008 6.921) translate(6.129)">
                        <mask id="ufduegvewb" fill="#fff">
                            <use xlink:href="#jco93pdvfa"/>
                        </mask>
                        <use fill="#FFF" fill-rule="nonzero" xlink:href="#jco93pdvfa"/>
                        <path fill="#ED6D6D" d="M6.341 24.257L3.716 25.332 3.896 22.424 2.067 20.179 4.813 19.481 6.309 17.019 7.826 19.495 10.579 20.218 8.771 22.447 8.976 25.356z" mask="url(#ufduegvewb)" transform="rotate(9 6.323 21.188)"/>
                        <path fill="#ED6D6D" d="M24.284 34.956L18.768 37.267 19.239 31.251 15.497 26.673 21.253 25.137 24.456 19.996 27.542 25.063 33.264 26.464 29.415 31.131 29.748 37.138z" mask="url(#ufduegvewb)" transform="rotate(-26 24.38 28.631)"/>
                        <path fill="#FFF" d="M7.417 17.467c-2.297 1.482-3.86 2.452-4.685 2.91-.826.458-.785.728.124.811l5.212-3.005-.65-.716z" mask="url(#ufduegvewb)"/>
                    </g>
                    <path fill="#FFF" fill-rule="nonzero" d="M1.497 25.469L6.318 25.436 6.238 36.643 1.418 36.676z" transform="translate(-33 -187) translate(33 189) translate(2.008 6.921) rotate(164.443 3.868 31.056)"/>
                </g>
                <path fill="#FFF" fill-opacity="0" d="M0 0H98V80H0z" transform="translate(-33 -187) translate(33 189)"/>
            </g>
        </g>
    </g>
</svg>
